<?xml version="1.0" encoding="UTF-8" standalone="no"?>
<!DOCTYPE svg PUBLIC "-//W3C//DTD SVG 1.1//EN"
 "http://www.w3.org/Graphics/SVG/1.1/DTD/svg11.dtd">
<!-- Generated by graphviz version 2.46.1 (20210213.1702)
 -->
<!-- Title: G Pages: 1 -->
<svg width="7499pt" height="525pt"
 viewBox="0.00 0.00 7498.50 525.00" xmlns="http://www.w3.org/2000/svg" xmlns:xlink="http://www.w3.org/1999/xlink">
<g id="graph0" class="graph" transform="scale(1 1) rotate(0) translate(4 521)">
<title>G</title>
<polygon fill="white" stroke="transparent" points="-4,4 -4,-521 7494.5,-521 7494.5,4 -4,4"/>
<!-- node0xc00059fbc8 -->
<g id="node1" class="node">
<title>node0xc00059fbc8</title>
<polygon fill="green" stroke="black" points="3315,-447.5 3315,-516.5 4175,-516.5 4175,-447.5 3315,-447.5"/>
<text text-anchor="middle" x="3745" y="-501.3" font-family="Times New Roman,serif" font-size="14.00">49</text>
<polyline fill="none" stroke="black" points="3315,-493.5 4175,-493.5 "/>
<text text-anchor="middle" x="3745" y="-478.3" font-family="Times New Roman,serif" font-size="14.00">34502e8d2708c4d6e6f8ed4fd32ebbc962775735e2a092394063562e90708494</text>
<polyline fill="none" stroke="black" points="3315,-470.5 4175,-470.5 "/>
<text text-anchor="middle" x="3745" y="-455.3" font-family="Times New Roman,serif" font-size="14.00">4fbc9b3dfa1465d0c07f0b7af39493906c6b378efd31e91b99888120987b9742e0abb906c947d6d53a297cfc0dca33d379ef9cbaeeae2009fbf1d3954c2eea0e</text>
</g>
<!-- node0xc00059fb48 -->
<g id="node2" class="node">
<title>node0xc00059fb48</title>
<polygon fill="green" stroke="black" points="2440.5,-341.5 2440.5,-410.5 3299.5,-410.5 3299.5,-341.5 2440.5,-341.5"/>
<text text-anchor="middle" x="2870" y="-395.3" font-family="Times New Roman,serif" font-size="14.00">36</text>
<polyline fill="none" stroke="black" points="2440.5,-387.5 3299.5,-387.5 "/>
<text text-anchor="middle" x="2870" y="-372.3" font-family="Times New Roman,serif" font-size="14.00">4fbc9b3dfa1465d0c07f0b7af39493906c6b378efd31e91b99888120987b9742</text>
<polyline fill="none" stroke="black" points="2440.5,-364.5 3299.5,-364.5 "/>
<text text-anchor="middle" x="2870" y="-349.3" font-family="Times New Roman,serif" font-size="14.00">11e0158adc8c6455f40af2c033b255f78797ab6fd2ce8892c188a9a48656b73724dc16e269019d3cfc5f15c30f875fe0f98345d678c0f90d886b8c4d8840de9a</text>
</g>
<!-- node0xc00059fbc8&#45;&gt;node0xc00059fb48 -->
<g id="edge15" class="edge">
<title>node0xc00059fbc8&#45;&gt;node0xc00059fb48</title>
<path fill="none" stroke="black" d="M3463.03,-447.49C3366.8,-436.05 3259.04,-423.24 3162.04,-411.71"/>
<polygon fill="black" stroke="black" points="3162.43,-408.23 3152.08,-410.53 3161.6,-415.18 3162.43,-408.23"/>
</g>
<!-- node0xc00059fb88 -->
<g id="node17" class="node">
<title>node0xc00059fb88</title>
<polygon fill="green" stroke="black" points="4183,-341.5 4183,-410.5 5051,-410.5 5051,-341.5 4183,-341.5"/>
<text text-anchor="middle" x="4617" y="-395.3" font-family="Times New Roman,serif" font-size="14.00">13</text>
<polyline fill="none" stroke="black" points="4183,-387.5 5051,-387.5 "/>
<text text-anchor="middle" x="4617" y="-372.3" font-family="Times New Roman,serif" font-size="14.00">e0abb906c947d6d53a297cfc0dca33d379ef9cbaeeae2009fbf1d3954c2eea0e</text>
<polyline fill="none" stroke="black" points="4183,-364.5 5051,-364.5 "/>
<text text-anchor="middle" x="4617" y="-349.3" font-family="Times New Roman,serif" font-size="14.00">89b937b888c53fa38b1a62f24985f09522af9e87b7a9fe07659864b8d5797a966c957ee4a2cbc10e60047a462453621e20c56b98438944b39db010bdd4f4c264</text>
</g>
<!-- node0xc00059fbc8&#45;&gt;node0xc00059fb88 -->
<g id="edge30" class="edge">
<title>node0xc00059fbc8&#45;&gt;node0xc00059fb88</title>
<path fill="none" stroke="black" d="M4026.01,-447.49C4121.8,-436.06 4229.08,-423.27 4325.67,-411.75"/>
<polygon fill="black" stroke="black" points="4326.37,-415.19 4335.88,-410.53 4325.54,-408.24 4326.37,-415.19"/>
</g>
<!-- node0xc00059fa48 -->
<g id="node3" class="node">
<title>node0xc00059fa48</title>
<polygon fill="green" stroke="black" points="1130,-235.5 1130,-304.5 1988,-304.5 1988,-235.5 1130,-235.5"/>
<text text-anchor="middle" x="1559" y="-289.3" font-family="Times New Roman,serif" font-size="14.00">10</text>
<polyline fill="none" stroke="black" points="1130,-281.5 1988,-281.5 "/>
<text text-anchor="middle" x="1559" y="-266.3" font-family="Times New Roman,serif" font-size="14.00">11e0158adc8c6455f40af2c033b255f78797ab6fd2ce8892c188a9a48656b737</text>
<polyline fill="none" stroke="black" points="1130,-258.5 1988,-258.5 "/>
<text text-anchor="middle" x="1559" y="-243.3" font-family="Times New Roman,serif" font-size="14.00">fee971868eed4b63d293240874e8bc8f5a71125000ae31c0771ca27b3c2085000ff4332fc8ab78cf86bc919538d3f35e45f3857b47f00b13c7b82a6d3ef7b165</text>
</g>
<!-- node0xc00059fb48&#45;&gt;node0xc00059fa48 -->
<g id="edge7" class="edge">
<title>node0xc00059fb48&#45;&gt;node0xc00059fa48</title>
<path fill="none" stroke="black" d="M2447.52,-341.49C2301.66,-329.91 2138.09,-316.94 1991.44,-305.31"/>
<polygon fill="black" stroke="black" points="1991.61,-301.81 1981.36,-304.51 1991.05,-308.79 1991.61,-301.81"/>
</g>
<!-- node0xc00059fa88 -->
<g id="node10" class="node">
<title>node0xc00059fa88</title>
<polygon fill="green" stroke="black" points="2444,-235.5 2444,-304.5 3296,-304.5 3296,-235.5 2444,-235.5"/>
<text text-anchor="middle" x="2870" y="-289.3" font-family="Times New Roman,serif" font-size="14.00">26</text>
<polyline fill="none" stroke="black" points="2444,-281.5 3296,-281.5 "/>
<text text-anchor="middle" x="2870" y="-266.3" font-family="Times New Roman,serif" font-size="14.00">24dc16e269019d3cfc5f15c30f875fe0f98345d678c0f90d886b8c4d8840de9a</text>
<polyline fill="none" stroke="black" points="2444,-258.5 3296,-258.5 "/>
<text text-anchor="middle" x="2870" y="-243.3" font-family="Times New Roman,serif" font-size="14.00">9942f1986e3f0fbb2ed2565a1bdc675a885cfa8e696c12c9450af360b578d86bd0aee08afc533e67d44d7497cfdf2d4aabcaadfd628efeecf22782101643bf68</text>
</g>
<!-- node0xc00059fb48&#45;&gt;node0xc00059fa88 -->
<g id="edge14" class="edge">
<title>node0xc00059fb48&#45;&gt;node0xc00059fa88</title>
<path fill="none" stroke="black" d="M2870,-341.23C2870,-332.79 2870,-323.62 2870,-314.77"/>
<polygon fill="black" stroke="black" points="2873.5,-314.6 2870,-304.6 2866.5,-314.6 2873.5,-314.6"/>
</g>
<!-- node0xc00059f848 -->
<g id="node4" class="node">
<title>node0xc00059f848</title>
<polygon fill="green" stroke="black" points="246.5,-129.5 246.5,-198.5 1111.5,-198.5 1111.5,-129.5 246.5,-129.5"/>
<text text-anchor="middle" x="679" y="-183.3" font-family="Times New Roman,serif" font-size="14.00">3</text>
<polyline fill="none" stroke="black" points="246.5,-175.5 1111.5,-175.5 "/>
<text text-anchor="middle" x="679" y="-160.3" font-family="Times New Roman,serif" font-size="14.00">fee971868eed4b63d293240874e8bc8f5a71125000ae31c0771ca27b3c208500</text>
<polyline fill="none" stroke="black" points="246.5,-152.5 1111.5,-152.5 "/>
<text text-anchor="middle" x="679" y="-137.3" font-family="Times New Roman,serif" font-size="14.00">9bfdf89045999b2ade27cc37dff5b55cb96b40cd42145432eca711127e7f8dd7bd044fc90ccdba07ebf11681cd21b48ee2fe4f1a19007c82085b7d1c37e2f9b6</text>
</g>
<!-- node0xc00059fa48&#45;&gt;node0xc00059f848 -->
<g id="edge3" class="edge">
<title>node0xc00059fa48&#45;&gt;node0xc00059f848</title>
<path fill="none" stroke="black" d="M1275.42,-235.49C1178.64,-224.05 1070.26,-211.24 972.71,-199.71"/>
<polygon fill="black" stroke="black" points="973.04,-196.23 962.7,-198.53 972.22,-203.18 973.04,-196.23"/>
</g>
<!-- node0xc00059f888 -->
<g id="node7" class="node">
<title>node0xc00059f888</title>
<polygon fill="green" stroke="black" points="1129.5,-129.5 1129.5,-198.5 1988.5,-198.5 1988.5,-129.5 1129.5,-129.5"/>
<text text-anchor="middle" x="1559" y="-183.3" font-family="Times New Roman,serif" font-size="14.00">7</text>
<polyline fill="none" stroke="black" points="1129.5,-175.5 1988.5,-175.5 "/>
<text text-anchor="middle" x="1559" y="-160.3" font-family="Times New Roman,serif" font-size="14.00">0ff4332fc8ab78cf86bc919538d3f35e45f3857b47f00b13c7b82a6d3ef7b165</text>
<polyline fill="none" stroke="black" points="1129.5,-152.5 1988.5,-152.5 "/>
<text text-anchor="middle" x="1559" y="-137.3" font-family="Times New Roman,serif" font-size="14.00">96e146ede25a2e16429be0677ed2f10d0e5c0d82b90a9e7bac96b9b94c26eba0bfcaf56ac6bed00f2b5404f1af689cef84edaa67b90f7ebd3d94d4f1e356bcde</text>
</g>
<!-- node0xc00059fa48&#45;&gt;node0xc00059f888 -->
<g id="edge6" class="edge">
<title>node0xc00059fa48&#45;&gt;node0xc00059f888</title>
<path fill="none" stroke="black" d="M1559,-235.23C1559,-226.79 1559,-217.62 1559,-208.77"/>
<polygon fill="black" stroke="black" points="1562.5,-208.6 1559,-198.6 1555.5,-208.6 1562.5,-208.6"/>
</g>
<!-- node0xc00059e308 -->
<g id="node5" class="node">
<title>node0xc00059e308</title>
<polygon fill="green" stroke="black" points="0,-0.5 0,-92.5 442,-92.5 442,-0.5 0,-0.5"/>
<text text-anchor="middle" x="221" y="-77.3" font-family="Times New Roman,serif" font-size="14.00">1</text>
<polyline fill="none" stroke="black" points="0,-69.5 442,-69.5 "/>
<text text-anchor="middle" x="221" y="-54.3" font-family="Times New Roman,serif" font-size="14.00">9bfdf89045999b2ade27cc37dff5b55cb96b40cd42145432eca711127e7f8dd7</text>
<polyline fill="none" stroke="black" points="0,-46.5 442,-46.5 "/>
<text text-anchor="middle" x="221" y="-31.3" font-family="Times New Roman,serif" font-size="14.00"> </text>
<polyline fill="none" stroke="black" points="0,-23.5 442,-23.5 "/>
<text text-anchor="middle" x="221" y="-8.3" font-family="Times New Roman,serif" font-size="14.00">2021?Mayo?&#45;12</text>
</g>
<!-- node0xc00059f848&#45;&gt;node0xc00059e308 -->
<g id="edge1" class="edge">
<title>node0xc00059f848&#45;&gt;node0xc00059e308</title>
<path fill="none" stroke="black" d="M545.91,-129.44C503.25,-118.68 455.18,-106.56 409.35,-95"/>
<polygon fill="black" stroke="black" points="410.16,-91.59 399.6,-92.54 408.44,-98.38 410.16,-91.59"/>
</g>
<!-- node0xc00059e408 -->
<g id="node6" class="node">
<title>node0xc00059e408</title>
<polygon fill="green" stroke="black" points="460,-0.5 460,-92.5 900,-92.5 900,-0.5 460,-0.5"/>
<text text-anchor="middle" x="680" y="-77.3" font-family="Times New Roman,serif" font-size="14.00">2</text>
<polyline fill="none" stroke="black" points="460,-69.5 900,-69.5 "/>
<text text-anchor="middle" x="680" y="-54.3" font-family="Times New Roman,serif" font-size="14.00">bd044fc90ccdba07ebf11681cd21b48ee2fe4f1a19007c82085b7d1c37e2f9b6</text>
<polyline fill="none" stroke="black" points="460,-46.5 900,-46.5 "/>
<text text-anchor="middle" x="680" y="-31.3" font-family="Times New Roman,serif" font-size="14.00"> </text>
<polyline fill="none" stroke="black" points="460,-23.5 900,-23.5 "/>
<text text-anchor="middle" x="680" y="-8.3" font-family="Times New Roman,serif" font-size="14.00">1997?Mayo?&#45;3</text>
</g>
<!-- node0xc00059f848&#45;&gt;node0xc00059e408 -->
<g id="edge2" class="edge">
<title>node0xc00059f848&#45;&gt;node0xc00059e408</title>
<path fill="none" stroke="black" d="M679.29,-129.28C679.36,-120.96 679.44,-111.83 679.52,-102.78"/>
<polygon fill="black" stroke="black" points="683.02,-102.67 679.61,-92.64 676.02,-102.61 683.02,-102.67"/>
</g>
<!-- node0xc00059e488 -->
<g id="node8" class="node">
<title>node0xc00059e488</title>
<polygon fill="green" stroke="black" points="1024,-0.5 1024,-92.5 1468,-92.5 1468,-0.5 1024,-0.5"/>
<text text-anchor="middle" x="1246" y="-77.3" font-family="Times New Roman,serif" font-size="14.00">3</text>
<polyline fill="none" stroke="black" points="1024,-69.5 1468,-69.5 "/>
<text text-anchor="middle" x="1246" y="-54.3" font-family="Times New Roman,serif" font-size="14.00">96e146ede25a2e16429be0677ed2f10d0e5c0d82b90a9e7bac96b9b94c26eba0</text>
<polyline fill="none" stroke="black" points="1024,-46.5 1468,-46.5 "/>
<text text-anchor="middle" x="1246" y="-31.3" font-family="Times New Roman,serif" font-size="14.00"> </text>
<polyline fill="none" stroke="black" points="1024,-23.5 1468,-23.5 "/>
<text text-anchor="middle" x="1246" y="-8.3" font-family="Times New Roman,serif" font-size="14.00">1997?Febrero?&#45;5&#45;22</text>
</g>
<!-- node0xc00059f888&#45;&gt;node0xc00059e488 -->
<g id="edge4" class="edge">
<title>node0xc00059f888&#45;&gt;node0xc00059e488</title>
<path fill="none" stroke="black" d="M1468.05,-129.44C1439.75,-119 1407.96,-107.26 1377.47,-96.01"/>
<polygon fill="black" stroke="black" points="1378.65,-92.72 1368.06,-92.54 1376.23,-99.29 1378.65,-92.72"/>
</g>
<!-- node0xc00059e5c8 -->
<g id="node9" class="node">
<title>node0xc00059e5c8</title>
<polygon fill="green" stroke="black" points="1486.5,-0.5 1486.5,-92.5 1917.5,-92.5 1917.5,-0.5 1486.5,-0.5"/>
<text text-anchor="middle" x="1702" y="-77.3" font-family="Times New Roman,serif" font-size="14.00">4</text>
<polyline fill="none" stroke="black" points="1486.5,-69.5 1917.5,-69.5 "/>
<text text-anchor="middle" x="1702" y="-54.3" font-family="Times New Roman,serif" font-size="14.00">bfcaf56ac6bed00f2b5404f1af689cef84edaa67b90f7ebd3d94d4f1e356bcde</text>
<polyline fill="none" stroke="black" points="1486.5,-46.5 1917.5,-46.5 "/>
<text text-anchor="middle" x="1702" y="-31.3" font-family="Times New Roman,serif" font-size="14.00"> </text>
<polyline fill="none" stroke="black" points="1486.5,-23.5 1917.5,-23.5 "/>
<text text-anchor="middle" x="1702" y="-8.3" font-family="Times New Roman,serif" font-size="14.00">1997?Agosto?&#45;19&#45;23</text>
</g>
<!-- node0xc00059f888&#45;&gt;node0xc00059e5c8 -->
<g id="edge5" class="edge">
<title>node0xc00059f888&#45;&gt;node0xc00059e5c8</title>
<path fill="none" stroke="black" d="M1600.75,-129.28C1612.49,-119.8 1625.53,-109.26 1638.25,-98.99"/>
<polygon fill="black" stroke="black" points="1640.53,-101.65 1646.11,-92.64 1636.13,-96.2 1640.53,-101.65"/>
</g>
<!-- node0xc00059f8c8 -->
<g id="node11" class="node">
<title>node0xc00059f8c8</title>
<polygon fill="green" stroke="black" points="2006.5,-129.5 2006.5,-198.5 2865.5,-198.5 2865.5,-129.5 2006.5,-129.5"/>
<text text-anchor="middle" x="2436" y="-183.3" font-family="Times New Roman,serif" font-size="14.00">11</text>
<polyline fill="none" stroke="black" points="2006.5,-175.5 2865.5,-175.5 "/>
<text text-anchor="middle" x="2436" y="-160.3" font-family="Times New Roman,serif" font-size="14.00">9942f1986e3f0fbb2ed2565a1bdc675a885cfa8e696c12c9450af360b578d86b</text>
<polyline fill="none" stroke="black" points="2006.5,-152.5 2865.5,-152.5 "/>
<text text-anchor="middle" x="2436" y="-137.3" font-family="Times New Roman,serif" font-size="14.00">4cb907c987943e226ebcac31d50f50ea528aa762fe1f41728b7e46512f13b7244b2f862a44e33728cae52baa9adb73be39ad3b0e8ac423e8ea25c6ab56541bfe</text>
</g>
<!-- node0xc00059fa88&#45;&gt;node0xc00059f8c8 -->
<g id="edge10" class="edge">
<title>node0xc00059fa88&#45;&gt;node0xc00059f8c8</title>
<path fill="none" stroke="black" d="M2729.99,-235.45C2683.97,-224.42 2632.63,-212.12 2585.91,-200.92"/>
<polygon fill="black" stroke="black" points="2586.55,-197.48 2576.01,-198.55 2584.92,-204.28 2586.55,-197.48"/>
</g>
<!-- node0xc00059f908 -->
<g id="node14" class="node">
<title>node0xc00059f908</title>
<polygon fill="green" stroke="black" points="2884,-129.5 2884,-198.5 3748,-198.5 3748,-129.5 2884,-129.5"/>
<text text-anchor="middle" x="3316" y="-183.3" font-family="Times New Roman,serif" font-size="14.00">15</text>
<polyline fill="none" stroke="black" points="2884,-175.5 3748,-175.5 "/>
<text text-anchor="middle" x="3316" y="-160.3" font-family="Times New Roman,serif" font-size="14.00">d0aee08afc533e67d44d7497cfdf2d4aabcaadfd628efeecf22782101643bf68</text>
<polyline fill="none" stroke="black" points="2884,-152.5 3748,-152.5 "/>
<text text-anchor="middle" x="3316" y="-137.3" font-family="Times New Roman,serif" font-size="14.00">ae6e94cd006c60c3798069b9544a8a65adfc8f1f544e7279682a27a8ec03e96382e1bf90725132ba919d1d8fde78976b2df4929b6db6486e30892ee682292665</text>
</g>
<!-- node0xc00059fa88&#45;&gt;node0xc00059f908 -->
<g id="edge13" class="edge">
<title>node0xc00059fa88&#45;&gt;node0xc00059f908</title>
<path fill="none" stroke="black" d="M3013.88,-235.45C3061.28,-224.4 3114.15,-212.07 3162.25,-200.85"/>
<polygon fill="black" stroke="black" points="3163.18,-204.23 3172.12,-198.55 3161.59,-197.41 3163.18,-204.23"/>
</g>
<!-- node0xc00059e6c8 -->
<g id="node12" class="node">
<title>node0xc00059e6c8</title>
<polygon fill="green" stroke="black" points="1988.5,-0.5 1988.5,-92.5 2425.5,-92.5 2425.5,-0.5 1988.5,-0.5"/>
<text text-anchor="middle" x="2207" y="-77.3" font-family="Times New Roman,serif" font-size="14.00">5</text>
<polyline fill="none" stroke="black" points="1988.5,-69.5 2425.5,-69.5 "/>
<text text-anchor="middle" x="2207" y="-54.3" font-family="Times New Roman,serif" font-size="14.00">4cb907c987943e226ebcac31d50f50ea528aa762fe1f41728b7e46512f13b724</text>
<polyline fill="none" stroke="black" points="1988.5,-46.5 2425.5,-46.5 "/>
<text text-anchor="middle" x="2207" y="-31.3" font-family="Times New Roman,serif" font-size="14.00"> </text>
<polyline fill="none" stroke="black" points="1988.5,-23.5 2425.5,-23.5 "/>
<text text-anchor="middle" x="2207" y="-8.3" font-family="Times New Roman,serif" font-size="14.00">1997?Diciembre?&#45;17&#45;25&#45;27</text>
</g>
<!-- node0xc00059f8c8&#45;&gt;node0xc00059e6c8 -->
<g id="edge8" class="edge">
<title>node0xc00059f8c8&#45;&gt;node0xc00059e6c8</title>
<path fill="none" stroke="black" d="M2369.46,-129.44C2349.47,-119.36 2327.1,-108.07 2305.5,-97.18"/>
<polygon fill="black" stroke="black" points="2306.81,-93.92 2296.3,-92.54 2303.65,-100.17 2306.81,-93.92"/>
</g>
<!-- node0xc00059e988 -->
<g id="node13" class="node">
<title>node0xc00059e988</title>
<polygon fill="green" stroke="black" points="2443.5,-0.5 2443.5,-92.5 2882.5,-92.5 2882.5,-0.5 2443.5,-0.5"/>
<text text-anchor="middle" x="2663" y="-77.3" font-family="Times New Roman,serif" font-size="14.00">6</text>
<polyline fill="none" stroke="black" points="2443.5,-69.5 2882.5,-69.5 "/>
<text text-anchor="middle" x="2663" y="-54.3" font-family="Times New Roman,serif" font-size="14.00">4b2f862a44e33728cae52baa9adb73be39ad3b0e8ac423e8ea25c6ab56541bfe</text>
<polyline fill="none" stroke="black" points="2443.5,-46.5 2882.5,-46.5 "/>
<text text-anchor="middle" x="2663" y="-31.3" font-family="Times New Roman,serif" font-size="14.00"> </text>
<polyline fill="none" stroke="black" points="2443.5,-23.5 2882.5,-23.5 "/>
<text text-anchor="middle" x="2663" y="-8.3" font-family="Times New Roman,serif" font-size="14.00">1997?Octubre?&#45;15&#45;26</text>
</g>
<!-- node0xc00059f8c8&#45;&gt;node0xc00059e988 -->
<g id="edge9" class="edge">
<title>node0xc00059f8c8&#45;&gt;node0xc00059e988</title>
<path fill="none" stroke="black" d="M2501.96,-129.44C2521.78,-119.36 2543.95,-108.07 2565.36,-97.18"/>
<polygon fill="black" stroke="black" points="2567.15,-100.19 2574.48,-92.54 2563.98,-93.96 2567.15,-100.19"/>
</g>
<!-- node0xc00059ec08 -->
<g id="node15" class="node">
<title>node0xc00059ec08</title>
<polygon fill="green" stroke="black" points="2928,-0.5 2928,-92.5 3364,-92.5 3364,-0.5 2928,-0.5"/>
<text text-anchor="middle" x="3146" y="-77.3" font-family="Times New Roman,serif" font-size="14.00">7</text>
<polyline fill="none" stroke="black" points="2928,-69.5 3364,-69.5 "/>
<text text-anchor="middle" x="3146" y="-54.3" font-family="Times New Roman,serif" font-size="14.00">ae6e94cd006c60c3798069b9544a8a65adfc8f1f544e7279682a27a8ec03e963</text>
<polyline fill="none" stroke="black" points="2928,-46.5 3364,-46.5 "/>
<text text-anchor="middle" x="3146" y="-31.3" font-family="Times New Roman,serif" font-size="14.00"> </text>
<polyline fill="none" stroke="black" points="2928,-23.5 3364,-23.5 "/>
<text text-anchor="middle" x="3146" y="-8.3" font-family="Times New Roman,serif" font-size="14.00">1997?Junio?&#45;9&#45;16&#45;17&#45;28&#45;17</text>
</g>
<!-- node0xc00059f908&#45;&gt;node0xc00059ec08 -->
<g id="edge11" class="edge">
<title>node0xc00059f908&#45;&gt;node0xc00059ec08</title>
<path fill="none" stroke="black" d="M3266.37,-129.28C3252.15,-119.62 3236.32,-108.86 3220.93,-98.41"/>
<polygon fill="black" stroke="black" points="3222.68,-95.37 3212.45,-92.64 3218.75,-101.16 3222.68,-95.37"/>
</g>
<!-- node0xc00059ee48 -->
<g id="node16" class="node">
<title>node0xc00059ee48</title>
<polygon fill="green" stroke="black" points="3382.5,-0.5 3382.5,-92.5 3827.5,-92.5 3827.5,-0.5 3382.5,-0.5"/>
<text text-anchor="middle" x="3605" y="-77.3" font-family="Times New Roman,serif" font-size="14.00">8</text>
<polyline fill="none" stroke="black" points="3382.5,-69.5 3827.5,-69.5 "/>
<text text-anchor="middle" x="3605" y="-54.3" font-family="Times New Roman,serif" font-size="14.00">82e1bf90725132ba919d1d8fde78976b2df4929b6db6486e30892ee682292665</text>
<polyline fill="none" stroke="black" points="3382.5,-46.5 3827.5,-46.5 "/>
<text text-anchor="middle" x="3605" y="-31.3" font-family="Times New Roman,serif" font-size="14.00"> </text>
<polyline fill="none" stroke="black" points="3382.5,-23.5 3827.5,-23.5 "/>
<text text-anchor="middle" x="3605" y="-8.3" font-family="Times New Roman,serif" font-size="14.00">1997?Enero?&#45;11</text>
</g>
<!-- node0xc00059f908&#45;&gt;node0xc00059ee48 -->
<g id="edge12" class="edge">
<title>node0xc00059f908&#45;&gt;node0xc00059ee48</title>
<path fill="none" stroke="black" d="M3399.98,-129.44C3425.88,-119.09 3454.95,-107.47 3482.88,-96.31"/>
<polygon fill="black" stroke="black" points="3484.31,-99.5 3492.3,-92.54 3481.72,-93 3484.31,-99.5"/>
</g>
<!-- node0xc00059fac8 -->
<g id="node18" class="node">
<title>node0xc00059fac8</title>
<polygon fill="green" stroke="black" points="4181,-235.5 4181,-304.5 5053,-304.5 5053,-235.5 4181,-235.5"/>
<text text-anchor="middle" x="4617" y="-289.3" font-family="Times New Roman,serif" font-size="14.00">17</text>
<polyline fill="none" stroke="black" points="4181,-281.5 5053,-281.5 "/>
<text text-anchor="middle" x="4617" y="-266.3" font-family="Times New Roman,serif" font-size="14.00">89b937b888c53fa38b1a62f24985f09522af9e87b7a9fe07659864b8d5797a96</text>
<polyline fill="none" stroke="black" points="4181,-258.5 5053,-258.5 "/>
<text text-anchor="middle" x="4617" y="-243.3" font-family="Times New Roman,serif" font-size="14.00">a0f1e4313bb6ed121cc9a6ca60c308c1f9b1ddc61dd412bb30bf26b54f96c0668a40707cb6ab2601e288c012fc6dd95d212dd2e0736f55e925ce77698a0ada46</text>
</g>
<!-- node0xc00059fb88&#45;&gt;node0xc00059fac8 -->
<g id="edge22" class="edge">
<title>node0xc00059fb88&#45;&gt;node0xc00059fac8</title>
<path fill="none" stroke="black" d="M4617,-341.23C4617,-332.79 4617,-323.62 4617,-314.77"/>
<polygon fill="black" stroke="black" points="4620.5,-314.6 4617,-304.6 4613.5,-314.6 4620.5,-314.6"/>
</g>
<!-- node0xc00059fb08 -->
<g id="node25" class="node">
<title>node0xc00059fb08</title>
<polygon fill="green" stroke="black" points="5501,-235.5 5501,-304.5 6371,-304.5 6371,-235.5 5501,-235.5"/>
<text text-anchor="middle" x="5936" y="-289.3" font-family="Times New Roman,serif" font-size="14.00">&#45;4</text>
<polyline fill="none" stroke="black" points="5501,-281.5 6371,-281.5 "/>
<text text-anchor="middle" x="5936" y="-266.3" font-family="Times New Roman,serif" font-size="14.00">6c957ee4a2cbc10e60047a462453621e20c56b98438944b39db010bdd4f4c264</text>
<polyline fill="none" stroke="black" points="5501,-258.5 6371,-258.5 "/>
<text text-anchor="middle" x="5936" y="-243.3" font-family="Times New Roman,serif" font-size="14.00">8a40707cb6ab2601e288c012fc6dd95d212dd2e0736f55e925ce77698a0ada468a40707cb6ab2601e288c012fc6dd95d212dd2e0736f55e925ce77698a0ada46</text>
</g>
<!-- node0xc00059fb88&#45;&gt;node0xc00059fb08 -->
<g id="edge29" class="edge">
<title>node0xc00059fb88&#45;&gt;node0xc00059fb08</title>
<path fill="none" stroke="black" d="M5042.06,-341.49C5188.81,-329.91 5353.37,-316.94 5500.92,-305.31"/>
<polygon fill="black" stroke="black" points="5501.37,-308.78 5511.06,-304.51 5500.82,-301.8 5501.37,-308.78"/>
</g>
<!-- node0xc00059f948 -->
<g id="node19" class="node">
<title>node0xc00059f948</title>
<polygon fill="green" stroke="black" points="3766,-129.5 3766,-198.5 4608,-198.5 4608,-129.5 3766,-129.5"/>
<text text-anchor="middle" x="4187" y="-183.3" font-family="Times New Roman,serif" font-size="14.00">19</text>
<polyline fill="none" stroke="black" points="3766,-175.5 4608,-175.5 "/>
<text text-anchor="middle" x="4187" y="-160.3" font-family="Times New Roman,serif" font-size="14.00">a0f1e4313bb6ed121cc9a6ca60c308c1f9b1ddc61dd412bb30bf26b54f96c066</text>
<polyline fill="none" stroke="black" points="3766,-152.5 4608,-152.5 "/>
<text text-anchor="middle" x="4187" y="-137.3" font-family="Times New Roman,serif" font-size="14.00">763c55fd9fa74fff51c12af8fedce3437e7dc7720e9f3ac6c2b5550e484acf496bc780c3b5f81405be4961fc39f9fd55ef003dcf3f869dfd910b51614a6da121</text>
</g>
<!-- node0xc00059fac8&#45;&gt;node0xc00059f948 -->
<g id="edge18" class="edge">
<title>node0xc00059fac8&#45;&gt;node0xc00059f948</title>
<path fill="none" stroke="black" d="M4478.28,-235.45C4432.68,-224.42 4381.82,-212.12 4335.52,-200.92"/>
<polygon fill="black" stroke="black" points="4336.26,-197.5 4325.72,-198.55 4334.61,-204.3 4336.26,-197.5"/>
</g>
<!-- node0xc00059f988 -->
<g id="node22" class="node">
<title>node0xc00059f988</title>
<polygon fill="green" stroke="black" points="4626.5,-129.5 4626.5,-198.5 5487.5,-198.5 5487.5,-129.5 4626.5,-129.5"/>
<text text-anchor="middle" x="5057" y="-183.3" font-family="Times New Roman,serif" font-size="14.00">&#45;2</text>
<polyline fill="none" stroke="black" points="4626.5,-175.5 5487.5,-175.5 "/>
<text text-anchor="middle" x="5057" y="-160.3" font-family="Times New Roman,serif" font-size="14.00">8a40707cb6ab2601e288c012fc6dd95d212dd2e0736f55e925ce77698a0ada46</text>
<polyline fill="none" stroke="black" points="4626.5,-152.5 5487.5,-152.5 "/>
<text text-anchor="middle" x="5057" y="-137.3" font-family="Times New Roman,serif" font-size="14.00">1bad6b8cf97131fceab8543e81f7757195fbb1d36b376ee994ad1cf17699c4641bad6b8cf97131fceab8543e81f7757195fbb1d36b376ee994ad1cf17699c464</text>
</g>
<!-- node0xc00059fac8&#45;&gt;node0xc00059f988 -->
<g id="edge21" class="edge">
<title>node0xc00059fac8&#45;&gt;node0xc00059f988</title>
<path fill="none" stroke="black" d="M4758.94,-235.45C4805.7,-224.4 4857.86,-212.07 4905.32,-200.85"/>
<polygon fill="black" stroke="black" points="4906.13,-204.26 4915.06,-198.55 4904.52,-197.44 4906.13,-204.26"/>
</g>
<!-- node0xc00059f048 -->
<g id="node20" class="node">
<title>node0xc00059f048</title>
<polygon fill="green" stroke="black" points="3858.5,-0.5 3858.5,-92.5 4283.5,-92.5 4283.5,-0.5 3858.5,-0.5"/>
<text text-anchor="middle" x="4071" y="-77.3" font-family="Times New Roman,serif" font-size="14.00">9</text>
<polyline fill="none" stroke="black" points="3858.5,-69.5 4283.5,-69.5 "/>
<text text-anchor="middle" x="4071" y="-54.3" font-family="Times New Roman,serif" font-size="14.00">763c55fd9fa74fff51c12af8fedce3437e7dc7720e9f3ac6c2b5550e484acf49</text>
<polyline fill="none" stroke="black" points="3858.5,-46.5 4283.5,-46.5 "/>
<text text-anchor="middle" x="4071" y="-31.3" font-family="Times New Roman,serif" font-size="14.00"> </text>
<polyline fill="none" stroke="black" points="3858.5,-23.5 4283.5,-23.5 "/>
<text text-anchor="middle" x="4071" y="-8.3" font-family="Times New Roman,serif" font-size="14.00">1997?Julio?&#45;2&#45;3</text>
</g>
<!-- node0xc00059f948&#45;&gt;node0xc00059f048 -->
<g id="edge16" class="edge">
<title>node0xc00059f948&#45;&gt;node0xc00059f048</title>
<path fill="none" stroke="black" d="M4153.14,-129.28C4143.88,-120.07 4133.63,-109.86 4123.59,-99.86"/>
<polygon fill="black" stroke="black" points="4125.9,-97.22 4116.34,-92.64 4120.96,-102.18 4125.9,-97.22"/>
</g>
<!-- node0xc00059f688 -->
<g id="node21" class="node">
<title>node0xc00059f688</title>
<polygon fill="green" stroke="black" points="4302,-0.5 4302,-92.5 4736,-92.5 4736,-0.5 4302,-0.5"/>
<text text-anchor="middle" x="4519" y="-77.3" font-family="Times New Roman,serif" font-size="14.00">10</text>
<polyline fill="none" stroke="black" points="4302,-69.5 4736,-69.5 "/>
<text text-anchor="middle" x="4519" y="-54.3" font-family="Times New Roman,serif" font-size="14.00">6bc780c3b5f81405be4961fc39f9fd55ef003dcf3f869dfd910b51614a6da121</text>
<polyline fill="none" stroke="black" points="4302,-46.5 4736,-46.5 "/>
<text text-anchor="middle" x="4519" y="-31.3" font-family="Times New Roman,serif" font-size="14.00"> </text>
<polyline fill="none" stroke="black" points="4302,-23.5 4736,-23.5 "/>
<text text-anchor="middle" x="4519" y="-8.3" font-family="Times New Roman,serif" font-size="14.00">1997?Noviembre?&#45;5</text>
</g>
<!-- node0xc00059f948&#45;&gt;node0xc00059f688 -->
<g id="edge17" class="edge">
<title>node0xc00059f948&#45;&gt;node0xc00059f688</title>
<path fill="none" stroke="black" d="M4283.47,-129.44C4313.62,-118.95 4347.5,-107.16 4379.96,-95.87"/>
<polygon fill="black" stroke="black" points="4381.24,-99.13 4389.53,-92.54 4378.94,-92.52 4381.24,-99.13"/>
</g>
<!-- node0xc00059f6c8 -->
<g id="node23" class="node">
<title>node0xc00059f6c8</title>
<polygon fill="green" stroke="black" points="4761.5,-12 4761.5,-81 5200.5,-81 5200.5,-12 4761.5,-12"/>
<text text-anchor="middle" x="4981" y="-65.8" font-family="Times New Roman,serif" font-size="14.00">&#45;1</text>
<polyline fill="none" stroke="black" points="4761.5,-58 5200.5,-58 "/>
<text text-anchor="middle" x="4981" y="-42.8" font-family="Times New Roman,serif" font-size="14.00">1bad6b8cf97131fceab8543e81f7757195fbb1d36b376ee994ad1cf17699c464</text>
<polyline fill="none" stroke="black" points="4761.5,-35 5200.5,-35 "/>
<text text-anchor="middle" x="4981" y="-19.8" font-family="Times New Roman,serif" font-size="14.00">&#45;1</text>
</g>
<!-- node0xc00059f988&#45;&gt;node0xc00059f6c8 -->
<g id="edge19" class="edge">
<title>node0xc00059f988&#45;&gt;node0xc00059f6c8</title>
<path fill="none" stroke="black" d="M5034.81,-129.28C5026.62,-116.83 5017.23,-102.56 5008.61,-89.47"/>
<polygon fill="black" stroke="black" points="5011.5,-87.49 5003.08,-81.06 5005.66,-91.34 5011.5,-87.49"/>
</g>
<!-- node0xc00059f708 -->
<g id="node24" class="node">
<title>node0xc00059f708</title>
<polygon fill="green" stroke="black" points="5218.5,-12 5218.5,-81 5657.5,-81 5657.5,-12 5218.5,-12"/>
<text text-anchor="middle" x="5438" y="-65.8" font-family="Times New Roman,serif" font-size="14.00">&#45;1</text>
<polyline fill="none" stroke="black" points="5218.5,-58 5657.5,-58 "/>
<text text-anchor="middle" x="5438" y="-42.8" font-family="Times New Roman,serif" font-size="14.00">1bad6b8cf97131fceab8543e81f7757195fbb1d36b376ee994ad1cf17699c464</text>
<polyline fill="none" stroke="black" points="5218.5,-35 5657.5,-35 "/>
<text text-anchor="middle" x="5438" y="-19.8" font-family="Times New Roman,serif" font-size="14.00">&#45;1</text>
</g>
<!-- node0xc00059f988&#45;&gt;node0xc00059f708 -->
<g id="edge20" class="edge">
<title>node0xc00059f988&#45;&gt;node0xc00059f708</title>
<path fill="none" stroke="black" d="M5167.71,-129.44C5214.68,-115.2 5269.55,-98.57 5317.53,-84.02"/>
<polygon fill="black" stroke="black" points="5318.79,-87.3 5327.34,-81.05 5316.76,-80.6 5318.79,-87.3"/>
</g>
<!-- node0xc00059f9c8 -->
<g id="node26" class="node">
<title>node0xc00059f9c8</title>
<polygon fill="green" stroke="black" points="5505.5,-129.5 5505.5,-198.5 6366.5,-198.5 6366.5,-129.5 5505.5,-129.5"/>
<text text-anchor="middle" x="5936" y="-183.3" font-family="Times New Roman,serif" font-size="14.00">&#45;2</text>
<polyline fill="none" stroke="black" points="5505.5,-175.5 6366.5,-175.5 "/>
<text text-anchor="middle" x="5936" y="-160.3" font-family="Times New Roman,serif" font-size="14.00">8a40707cb6ab2601e288c012fc6dd95d212dd2e0736f55e925ce77698a0ada46</text>
<polyline fill="none" stroke="black" points="5505.5,-152.5 6366.5,-152.5 "/>
<text text-anchor="middle" x="5936" y="-137.3" font-family="Times New Roman,serif" font-size="14.00">1bad6b8cf97131fceab8543e81f7757195fbb1d36b376ee994ad1cf17699c4641bad6b8cf97131fceab8543e81f7757195fbb1d36b376ee994ad1cf17699c464</text>
</g>
<!-- node0xc00059fb08&#45;&gt;node0xc00059f9c8 -->
<g id="edge25" class="edge">
<title>node0xc00059fb08&#45;&gt;node0xc00059f9c8</title>
<path fill="none" stroke="black" d="M5936,-235.23C5936,-226.79 5936,-217.62 5936,-208.77"/>
<polygon fill="black" stroke="black" points="5939.5,-208.6 5936,-198.6 5932.5,-208.6 5939.5,-208.6"/>
</g>
<!-- node0xc00059fa08 -->
<g id="node29" class="node">
<title>node0xc00059fa08</title>
<polygon fill="green" stroke="black" points="6384.5,-129.5 6384.5,-198.5 7245.5,-198.5 7245.5,-129.5 6384.5,-129.5"/>
<text text-anchor="middle" x="6815" y="-183.3" font-family="Times New Roman,serif" font-size="14.00">&#45;2</text>
<polyline fill="none" stroke="black" points="6384.5,-175.5 7245.5,-175.5 "/>
<text text-anchor="middle" x="6815" y="-160.3" font-family="Times New Roman,serif" font-size="14.00">8a40707cb6ab2601e288c012fc6dd95d212dd2e0736f55e925ce77698a0ada46</text>
<polyline fill="none" stroke="black" points="6384.5,-152.5 7245.5,-152.5 "/>
<text text-anchor="middle" x="6815" y="-137.3" font-family="Times New Roman,serif" font-size="14.00">1bad6b8cf97131fceab8543e81f7757195fbb1d36b376ee994ad1cf17699c4641bad6b8cf97131fceab8543e81f7757195fbb1d36b376ee994ad1cf17699c464</text>
</g>
<!-- node0xc00059fb08&#45;&gt;node0xc00059fa08 -->
<g id="edge28" class="edge">
<title>node0xc00059fb08&#45;&gt;node0xc00059fa08</title>
<path fill="none" stroke="black" d="M6219.26,-235.49C6315.93,-224.05 6424.18,-211.24 6521.63,-199.71"/>
<polygon fill="black" stroke="black" points="6522.11,-203.18 6531.63,-198.53 6521.28,-196.23 6522.11,-203.18"/>
</g>
<!-- node0xc00059f748 -->
<g id="node27" class="node">
<title>node0xc00059f748</title>
<polygon fill="green" stroke="black" points="5678.5,-12 5678.5,-81 6117.5,-81 6117.5,-12 5678.5,-12"/>
<text text-anchor="middle" x="5898" y="-65.8" font-family="Times New Roman,serif" font-size="14.00">&#45;1</text>
<polyline fill="none" stroke="black" points="5678.5,-58 6117.5,-58 "/>
<text text-anchor="middle" x="5898" y="-42.8" font-family="Times New Roman,serif" font-size="14.00">1bad6b8cf97131fceab8543e81f7757195fbb1d36b376ee994ad1cf17699c464</text>
<polyline fill="none" stroke="black" points="5678.5,-35 6117.5,-35 "/>
<text text-anchor="middle" x="5898" y="-19.8" font-family="Times New Roman,serif" font-size="14.00">&#45;1</text>
</g>
<!-- node0xc00059f9c8&#45;&gt;node0xc00059f748 -->
<g id="edge23" class="edge">
<title>node0xc00059f9c8&#45;&gt;node0xc00059f748</title>
<path fill="none" stroke="black" d="M5924.91,-129.28C5920.93,-117.18 5916.38,-103.37 5912.18,-90.59"/>
<polygon fill="black" stroke="black" points="5915.49,-89.47 5909.04,-81.06 5908.84,-91.65 5915.49,-89.47"/>
</g>
<!-- node0xc00059f788 -->
<g id="node28" class="node">
<title>node0xc00059f788</title>
<polygon fill="green" stroke="black" points="6135.5,-12 6135.5,-81 6574.5,-81 6574.5,-12 6135.5,-12"/>
<text text-anchor="middle" x="6355" y="-65.8" font-family="Times New Roman,serif" font-size="14.00">&#45;1</text>
<polyline fill="none" stroke="black" points="6135.5,-58 6574.5,-58 "/>
<text text-anchor="middle" x="6355" y="-42.8" font-family="Times New Roman,serif" font-size="14.00">1bad6b8cf97131fceab8543e81f7757195fbb1d36b376ee994ad1cf17699c464</text>
<polyline fill="none" stroke="black" points="6135.5,-35 6574.5,-35 "/>
<text text-anchor="middle" x="6355" y="-19.8" font-family="Times New Roman,serif" font-size="14.00">&#45;1</text>
</g>
<!-- node0xc00059f9c8&#45;&gt;node0xc00059f788 -->
<g id="edge24" class="edge">
<title>node0xc00059f9c8&#45;&gt;node0xc00059f788</title>
<path fill="none" stroke="black" d="M6057.75,-129.44C6109.73,-115.11 6170.5,-98.36 6223.5,-83.75"/>
<polygon fill="black" stroke="black" points="6224.59,-87.08 6233.3,-81.05 6222.73,-80.33 6224.59,-87.08"/>
</g>
<!-- node0xc00059f7c8 -->
<g id="node30" class="node">
<title>node0xc00059f7c8</title>
<polygon fill="green" stroke="black" points="6594.5,-12 6594.5,-81 7033.5,-81 7033.5,-12 6594.5,-12"/>
<text text-anchor="middle" x="6814" y="-65.8" font-family="Times New Roman,serif" font-size="14.00">&#45;1</text>
<polyline fill="none" stroke="black" points="6594.5,-58 7033.5,-58 "/>
<text text-anchor="middle" x="6814" y="-42.8" font-family="Times New Roman,serif" font-size="14.00">1bad6b8cf97131fceab8543e81f7757195fbb1d36b376ee994ad1cf17699c464</text>
<polyline fill="none" stroke="black" points="6594.5,-35 7033.5,-35 "/>
<text text-anchor="middle" x="6814" y="-19.8" font-family="Times New Roman,serif" font-size="14.00">&#45;1</text>
</g>
<!-- node0xc00059fa08&#45;&gt;node0xc00059f7c8 -->
<g id="edge26" class="edge">
<title>node0xc00059fa08&#45;&gt;node0xc00059f7c8</title>
<path fill="none" stroke="black" d="M6814.71,-129.28C6814.61,-117.42 6814.49,-103.92 6814.38,-91.34"/>
<polygon fill="black" stroke="black" points="6817.88,-91.03 6814.29,-81.06 6810.88,-91.09 6817.88,-91.03"/>
</g>
<!-- node0xc00059f808 -->
<g id="node31" class="node">
<title>node0xc00059f808</title>
<polygon fill="green" stroke="black" points="7051.5,-12 7051.5,-81 7490.5,-81 7490.5,-12 7051.5,-12"/>
<text text-anchor="middle" x="7271" y="-65.8" font-family="Times New Roman,serif" font-size="14.00">&#45;1</text>
<polyline fill="none" stroke="black" points="7051.5,-58 7490.5,-58 "/>
<text text-anchor="middle" x="7271" y="-42.8" font-family="Times New Roman,serif" font-size="14.00">1bad6b8cf97131fceab8543e81f7757195fbb1d36b376ee994ad1cf17699c464</text>
<polyline fill="none" stroke="black" points="7051.5,-35 7490.5,-35 "/>
<text text-anchor="middle" x="7271" y="-19.8" font-family="Times New Roman,serif" font-size="14.00">&#45;1</text>
</g>
<!-- node0xc00059fa08&#45;&gt;node0xc00059f808 -->
<g id="edge27" class="edge">
<title>node0xc00059fa08&#45;&gt;node0xc00059f808</title>
<path fill="none" stroke="black" d="M6947.51,-129.44C7004.31,-115.05 7070.76,-98.22 7128.61,-83.57"/>
<polygon fill="black" stroke="black" points="7129.72,-86.89 7138.56,-81.05 7128,-80.11 7129.72,-86.89"/>
</g>
</g>
</svg>
