<?xml version="1.0" encoding="UTF-8" standalone="no"?>
<!DOCTYPE svg PUBLIC "-//W3C//DTD SVG 1.1//EN"
 "http://www.w3.org/Graphics/SVG/1.1/DTD/svg11.dtd">
<!-- Generated by graphviz version 2.46.1 (20210213.1702)
 -->
<!-- Title: G Pages: 1 -->
<svg width="908pt" height="207pt"
 viewBox="0.00 0.00 907.50 207.00" xmlns="http://www.w3.org/2000/svg" xmlns:xlink="http://www.w3.org/1999/xlink">
<g id="graph0" class="graph" transform="scale(1 1) rotate(0) translate(4 203)">
<title>G</title>
<polygon fill="white" stroke="transparent" points="-4,4 -4,-203 903.5,-203 903.5,4 -4,4"/>
<!-- node0xc0000e6608 -->
<g id="node1" class="node">
<title>node0xc0000e6608</title>
<polygon fill="green" stroke="black" points="18,-129.5 18,-198.5 882,-198.5 882,-129.5 18,-129.5"/>
<text text-anchor="middle" x="450" y="-183.3" font-family="Times New Roman,serif" font-size="14.00">0</text>
<polyline fill="none" stroke="black" points="18,-175.5 882,-175.5 "/>
<text text-anchor="middle" x="450" y="-160.3" font-family="Times New Roman,serif" font-size="14.00">dde4955fd4812636f2d7b68d7ee3d794360ff3e01e83f2a30e1bea92176fb5c2</text>
<polyline fill="none" stroke="black" points="18,-152.5 882,-152.5 "/>
<text text-anchor="middle" x="450" y="-137.3" font-family="Times New Roman,serif" font-size="14.00">9bfdf89045999b2ade27cc37dff5b55cb96b40cd42145432eca711127e7f8dd71bad6b8cf97131fceab8543e81f7757195fbb1d36b376ee994ad1cf17699c464</text>
</g>
<!-- node0xc0000e6588 -->
<g id="node2" class="node">
<title>node0xc0000e6588</title>
<polygon fill="green" stroke="black" points="0,-0.5 0,-92.5 442,-92.5 442,-0.5 0,-0.5"/>
<text text-anchor="middle" x="221" y="-77.3" font-family="Times New Roman,serif" font-size="14.00">1</text>
<polyline fill="none" stroke="black" points="0,-69.5 442,-69.5 "/>
<text text-anchor="middle" x="221" y="-54.3" font-family="Times New Roman,serif" font-size="14.00">9bfdf89045999b2ade27cc37dff5b55cb96b40cd42145432eca711127e7f8dd7</text>
<polyline fill="none" stroke="black" points="0,-46.5 442,-46.5 "/>
<text text-anchor="middle" x="221" y="-31.3" font-family="Times New Roman,serif" font-size="14.00"> </text>
<polyline fill="none" stroke="black" points="0,-23.5 442,-23.5 "/>
<text text-anchor="middle" x="221" y="-8.3" font-family="Times New Roman,serif" font-size="14.00">2021?Mayo?&#45;12</text>
</g>
<!-- node0xc0000e6608&#45;&gt;node0xc0000e6588 -->
<g id="edge1" class="edge">
<title>node0xc0000e6608&#45;&gt;node0xc0000e6588</title>
<path fill="none" stroke="black" d="M383.46,-129.44C363.47,-119.36 341.1,-108.07 319.5,-97.18"/>
<polygon fill="black" stroke="black" points="320.81,-93.92 310.3,-92.54 317.65,-100.17 320.81,-93.92"/>
</g>
<!-- node0xc0000e65c8 -->
<g id="node3" class="node">
<title>node0xc0000e65c8</title>
<polygon fill="green" stroke="black" points="460.5,-12 460.5,-81 899.5,-81 899.5,-12 460.5,-12"/>
<text text-anchor="middle" x="680" y="-65.8" font-family="Times New Roman,serif" font-size="14.00">&#45;1</text>
<polyline fill="none" stroke="black" points="460.5,-58 899.5,-58 "/>
<text text-anchor="middle" x="680" y="-42.8" font-family="Times New Roman,serif" font-size="14.00">1bad6b8cf97131fceab8543e81f7757195fbb1d36b376ee994ad1cf17699c464</text>
<polyline fill="none" stroke="black" points="460.5,-35 899.5,-35 "/>
<text text-anchor="middle" x="680" y="-19.8" font-family="Times New Roman,serif" font-size="14.00">&#45;1</text>
</g>
<!-- node0xc0000e6608&#45;&gt;node0xc0000e65c8 -->
<g id="edge2" class="edge">
<title>node0xc0000e6608&#45;&gt;node0xc0000e65c8</title>
<path fill="none" stroke="black" d="M516.83,-129.44C544.12,-115.73 575.82,-99.81 603.99,-85.67"/>
<polygon fill="black" stroke="black" points="605.63,-88.76 613,-81.15 602.49,-82.51 605.63,-88.76"/>
</g>
</g>
</svg>
